<svg xmlns="http://www.w3.org/2000/svg" width="462" height="446" fill="none"  xmlns:v="https://vecta.io/nano"><style><![CDATA[.B{color-interpolation-filters:sRGB}.C{flood-opacity:0}]]></style><path d="M96 32a8 8 0 018-8h350a8 8 0 018 8v406a8 8 0 01-8 8H104a8 8 0 01-8-8V32z" fill="#0b70e7"/><g filter="url(#A)"><rect x="44" y="8" width="370" height="390" rx="12" fill="#fff"/></g><path d="M44 18A12 12 0 0156 6h346a12 12 0 0112 12v56H44V18z" fill="#0b70e7"/><path d="M44 18A12 12 0 0156 6h346a12 12 0 0112 12v56H44V18z" fill="url(#D)" fill-opacity=".24"/><path d="M124.37 35.47h-4.02v-2.29h10.88v2.29h-4.02V46h-2.84V35.47zm11.06 10.67c-.97 0-1.82-.19-2.55-.57a4.05 4.05 0 01-1.67-1.66 5.28 5.28 0 01-.58-2.52c0-.96.2-1.8.58-2.52.4-.72.95-1.27 1.67-1.65a5.43 5.43 0 012.56-.58c.96 0 1.8.2 2.52.58.72.38 1.27.93 1.65 1.65.4.72.6 1.56.6 2.52s-.2 1.8-.6 2.52a3.94 3.94 0 01-1.66 1.66c-.71.38-1.55.57-2.51.57zm0-2.07c.68 0 1.19-.22 1.53-.66.36-.45.54-1.12.54-2.02 0-.89-.18-1.55-.53-2-.35-.45-.86-.68-1.53-.68-.69 0-1.21.23-1.57.68-.36.45-.54 1.11-.54 2 0 1.79.7 2.68 2.1 2.68zm9.84-5.16v3.54c0 .5.14.88.4 1.12.27.23.6.34 1.03.34.26 0 .56-.04.9-.12v2.1c-.44.17-.96.25-1.57.25-1.13 0-2-.31-2.6-.95a3.8 3.8 0 01-.87-2.68v-3.6h-1.73v-2.04h1.73v-2.14l2.72-.88v3.02h2.32v2.04h-2.32zm12.87-2.04V46h-2.69v-1.35c-.27.47-.66.83-1.17 1.1-.5.26-1.07.4-1.7.4-.8 0-1.5-.2-2.11-.58a3.97 3.97 0 01-1.42-1.64 5.81 5.81 0 01-.5-2.48c0-.94.16-1.77.5-2.5a4 4 0 011.44-1.7c.6-.4 1.3-.61 2.08-.61.64 0 1.21.14 1.71.41a3 3 0 011.17 1.12v-1.3h2.69zm-4.77 7.2c.67 0 1.18-.22 1.54-.68.36-.46.54-1.12.54-1.98 0-.86-.18-1.52-.54-1.98-.36-.47-.87-.7-1.54-.7-.68 0-1.2.24-1.57.72a3.19 3.19 0 00-.56 2c0 .85.18 1.5.54 1.96.37.44.9.66 1.59.66zm6.96-11.32h2.72V46h-2.72V32.75zm14.66 13.41c-.97 0-1.9-.12-2.8-.38a6.48 6.48 0 01-2.22-1.1l.9-2.01a7.06 7.06 0 004.14 1.3c.82 0 1.44-.13 1.87-.38.45-.27.67-.63.67-1.1 0-.4-.2-.73-.61-.95-.4-.24-1.1-.47-2.1-.69a11.7 11.7 0 01-2.7-.83 3.73 3.73 0 01-1.47-1.2 3.3 3.3 0 01-.45-1.78c0-.77.21-1.46.63-2.07a4.2 4.2 0 011.8-1.43 6.4 6.4 0 012.67-.52c.9 0 1.78.13 2.63.4.84.26 1.5.62 2.01 1.08l-.9 2.01a5.99 5.99 0 00-3.72-1.3c-.72 0-1.3.15-1.73.44-.44.29-.65.68-.65 1.17 0 .29.08.53.23.72.17.2.45.37.83.52.38.15.93.29 1.64.43 1.64.36 2.83.83 3.55 1.4.73.58 1.1 1.37 1.1 2.37a3.4 3.4 0 01-1.41 2.86c-.94.7-2.24 1.04-3.9 1.04zm15.36-4.5h-6.01c.05.85.27 1.48.66 1.87.4.39.99.58 1.77.58a4.42 4.42 0 002.7-.92l.72 1.84a4.9 4.9 0 01-1.62.83c-.64.19-1.28.28-1.93.28a5.01 5.01 0 01-3.61-1.26 4.62 4.62 0 01-1.32-3.47c0-.92.19-1.75.56-2.47.38-.73.92-1.3 1.6-1.69.69-.4 1.46-.61 2.32-.61 1.29 0 2.3.42 3.05 1.26a4.85 4.85 0 011.11 3.37v.4zm-4.09-3.11c-.51 0-.93.15-1.25.45-.32.3-.52.74-.62 1.31h3.62c-.14-1.17-.72-1.76-1.75-1.76zm5.8-5.8h2.72V46h-2.72V32.75zm4.94 0h2.72V46H197V32.75zm4.94 4.12h2.72V46h-2.72v-9.13zm2.8-4.28v2.56h-2.9v-2.56h2.9zm7.77 4.05c2.16 0 3.24 1.28 3.24 3.83V46h-2.72v-5.4c0-.64-.12-1.1-.36-1.39-.23-.3-.6-.45-1.1-.45-.6 0-1.08.2-1.44.58-.36.38-.54.9-.54 1.55V46h-2.71v-6.52c0-.97-.05-1.84-.15-2.6h2.56l.18 1.43a3.38 3.38 0 013.04-1.67zm14.64.23v8.72c0 1.45-.42 2.55-1.26 3.3-.84.76-2.06 1.14-3.67 1.14a7.99 7.99 0 01-3.78-.84l.41-2.02c1.1.55 2.2.83 3.28.83.78 0 1.36-.19 1.74-.56.39-.36.58-.91.58-1.66V44.2a3.5 3.5 0 01-2.92 1.55c-.79 0-1.5-.19-2.1-.56a3.97 3.97 0 01-1.44-1.6c-.35-.7-.53-1.5-.53-2.4 0-.9.18-1.69.53-2.37a3.82 3.82 0 013.54-2.18c.64 0 1.22.14 1.73.41.52.28.91.65 1.19 1.12v-1.3h2.7zm-4.83 6.8c.67 0 1.18-.2 1.55-.64.39-.44.58-1.06.58-1.84 0-.76-.19-1.36-.56-1.8-.37-.44-.9-.66-1.56-.66-.68 0-1.2.22-1.59.66a2.62 2.62 0 00-.58 1.8c0 .77.2 1.38.58 1.82.38.45.91.67 1.58.67zm12.25-10.49h5.81c1.42 0 2.51.35 3.3 1.03a3.5 3.5 0 011.18 2.79c0 1.16-.4 2.1-1.19 2.79a4.88 4.88 0 01-3.29 1.03h-3V46h-2.81V33.18zm5.45 5.5c1.46 0 2.2-.56 2.2-1.66 0-1.12-.74-1.68-2.2-1.68h-2.65v3.33h2.65zm11.65-2.02c.38 0 .7.06.97.18l-.02 2.48c-.44-.2-.89-.3-1.33-.3-.72 0-1.27.2-1.66.59-.37.38-.56.92-.56 1.62V46h-2.71v-6.52c0-.97-.05-1.84-.15-2.6h2.56l.18 1.56c.23-.58.58-1.01 1.06-1.31.5-.32 1.05-.47 1.66-.47zm2.07.21h2.72V46h-2.72v-9.13zm2.8-4.28v2.56h-2.89v-2.56h2.9zM263 46.14a4.78 4.78 0 01-3.51-1.26 4.65 4.65 0 01-1.26-3.43c0-.95.2-1.79.61-2.5.4-.74.98-1.3 1.71-1.7.75-.4 1.6-.61 2.57-.61.67 0 1.3.1 1.93.3.63.21 1.12.49 1.5.83l-.73 1.9a4.14 4.14 0 00-2.44-.92c-.75 0-1.33.22-1.75.68-.4.44-.61 1.1-.61 1.96 0 .88.2 1.54.61 2 .4.44 1 .67 1.75.67.4 0 .82-.08 1.26-.24.43-.17.82-.4 1.19-.68l.72 1.89c-.4.35-.92.62-1.55.83-.64.19-1.3.28-2 .28zm13.03-4.48h-6.01c.04.85.27 1.48.66 1.87.4.39.99.58 1.76.58a4.42 4.42 0 002.7-.92l.73 1.84a4.9 4.9 0 01-1.63.83c-.63.19-1.27.28-1.92.28a5.01 5.01 0 01-3.62-1.26 4.62 4.62 0 01-1.31-3.47c0-.92.18-1.75.56-2.47.38-.73.91-1.3 1.6-1.69.68-.4 1.45-.61 2.32-.61 1.28 0 2.3.42 3.04 1.26a4.85 4.85 0 011.12 3.37v.4zm-4.09-3.11c-.51 0-.94.15-1.26.45-.31.3-.51.74-.61 1.31h3.62c-.15-1.17-.73-1.76-1.75-1.76zm25.78-1.68l-3.7 9.13h-2.28l-2.07-5.3-1.98 5.3h-2.3l-3.7-9.13h2.78l2.2 5.89 2.17-5.89h1.86l2.2 5.94 2.19-5.94h2.63zm1.1 0h2.73V46h-2.72v-9.13zm2.81-4.28v2.56h-2.9v-2.56h2.9zm2.14.16h2.72V46h-2.72V32.75zm4.94 0h2.71V46h-2.71V32.75zm15.58 3.89a3.8 3.8 0 013.53 2.25c.33.7.5 1.53.5 2.47 0 .93-.17 1.77-.52 2.5a3.76 3.76 0 01-3.51 2.29c-.64 0-1.21-.14-1.73-.4-.5-.28-.89-.65-1.15-1.12V46h-2.7V32.75h2.72v5.4c.26-.47.64-.83 1.15-1.1a3.57 3.57 0 011.7-.41zm-.78 7.43c.68 0 1.2-.23 1.55-.7.36-.47.54-1.14.54-2.01 0-.84-.18-1.5-.54-1.95a1.86 1.86 0 00-1.55-.68c-.67 0-1.19.23-1.56.7a3.1 3.1 0 00-.54 1.96c0 .87.18 1.53.54 2 .37.46.9.68 1.56.68zm14.74-2.4h-6c.04.84.26 1.47.66 1.86.4.39.98.58 1.76.58a4.42 4.42 0 002.7-.92l.72 1.84a4.9 4.9 0 01-1.62.83c-.63.19-1.28.28-1.92.28a5.01 5.01 0 01-3.62-1.26 4.62 4.62 0 01-1.32-3.47c0-.92.19-1.75.56-2.47.39-.73.92-1.3 1.6-1.69.69-.4 1.46-.61 2.33-.61 1.28 0 2.3.42 3.04 1.26a4.85 4.85 0 011.11 3.37v.4zm-4.08-3.12c-.52 0-.94.15-1.26.45-.31.3-.52.74-.61 1.31h3.61c-.14-1.17-.72-1.76-1.74-1.76z" fill="#fff"/><g filter="url(#B)"><rect x="12" y="209" width="205" height="121" rx="8" fill="#fff"/></g><path d="M74.76 235.64h-3.57v-2.03h9.67v2.03h-3.57V245h-2.53v-9.36zm9.84 9.49c-.87 0-1.62-.17-2.27-.51a3.6 3.6 0 01-1.5-1.48 4.7 4.7 0 01-.5-2.24c0-.85.17-1.6.5-2.24a3.6 3.6 0 011.5-1.47c.65-.34 1.4-.51 2.27-.51.85 0 1.6.17 2.24.51a3.5 3.5 0 011.47 1.47c.35.64.53 1.4.53 2.24 0 .86-.18 1.6-.53 2.24a3.5 3.5 0 01-1.47 1.48 4.7 4.7 0 01-2.24.5zm0-1.84c.6 0 1.05-.2 1.36-.6.32-.39.48-.99.48-1.79 0-.78-.16-1.38-.48-1.77-.31-.4-.76-.61-1.36-.61-.61 0-1.07.2-1.4.6-.31.4-.47 1-.47 1.78 0 1.6.62 2.39 1.87 2.39zm8.74-4.6v3.16c0 .45.12.78.36.99.23.2.53.3.9.3.24 0 .51-.03.8-.1v1.86c-.38.15-.84.23-1.38.23-1 0-1.77-.28-2.3-.85a3.38 3.38 0 01-.8-2.38v-3.2H89.4v-1.81h1.54v-1.9l2.41-.79v2.69h2.07v1.8h-2.07zm11.44-1.8V245h-2.39v-1.2c-.24.42-.59.74-1.04.98-.45.23-.95.35-1.52.35-.7 0-1.33-.17-1.87-.51a3.53 3.53 0 01-1.26-1.46 5.17 5.17 0 01-.45-2.2c0-.84.15-1.58.45-2.23.3-.65.73-1.15 1.28-1.5a3.27 3.27 0 011.85-.55c.57 0 1.07.12 1.52.37.45.24.8.57 1.04.99v-1.15h2.39zm-4.24 6.4c.6 0 1.05-.2 1.37-.61.32-.4.48-1 .48-1.76 0-.77-.16-1.35-.48-1.76a1.63 1.63 0 00-1.37-.62c-.6 0-1.07.2-1.4.64-.33.42-.5 1.01-.5 1.77s.17 1.34.49 1.75c.33.4.8.59 1.4.59zm6.19-10.07h2.41V245h-2.41v-11.78zm9.05.39h5.16c1.26 0 2.24.3 2.93.91a3.1 3.1 0 011.06 2.48c0 1.03-.35 1.86-1.06 2.48-.7.6-1.68.91-2.93.91h-2.67V245h-2.5v-11.4zm4.84 4.88c1.3 0 1.96-.5 1.96-1.47 0-1-.65-1.5-1.95-1.5h-2.36v2.97h2.36zm10.36-1.8c.34 0 .63.06.86.17l-.02 2.2c-.39-.18-.78-.27-1.18-.27-.64 0-1.13.18-1.47.53-.33.34-.5.82-.5 1.44V245h-2.41v-5.8c0-.86-.05-1.63-.13-2.31h2.27l.16 1.39c.2-.51.52-.9.94-1.17a2.7 2.7 0 011.48-.41zm5.56 8.44c-.87 0-1.63-.17-2.28-.51a3.6 3.6 0 01-1.48-1.48 4.68 4.68 0 01-.52-2.24c0-.85.17-1.6.52-2.24a3.6 3.6 0 011.48-1.47c.65-.34 1.41-.51 2.28-.51.85 0 1.6.17 2.24.51a3.5 3.5 0 011.47 1.47c.35.64.53 1.4.53 2.24 0 .86-.18 1.6-.53 2.24a3.5 3.5 0 01-1.47 1.48 4.7 4.7 0 01-2.24.5zm0-1.84c.6 0 1.05-.2 1.36-.6.32-.39.48-.99.48-1.79 0-.78-.16-1.38-.48-1.77-.31-.4-.77-.61-1.36-.61-.61 0-1.08.2-1.4.6-.32.4-.48 1-.48 1.78 0 1.6.63 2.39 1.88 2.39zM150.93 233v2.32h-2.64V233h2.64zm-5.65 3.89h5.54V245h-2.43v-6.3h-3.1v6.3h-2.42v-6.3h-1.54v-1.81h1.54v-.66c0-.77.11-1.37.35-1.8.24-.44.64-.76 1.18-.95.55-.2 1.29-.3 2.23-.3h.64v1.74h-.39c-.47 0-.81.04-1.04.11a.72.72 0 00-.45.43c-.07.2-.1.53-.1.98v.45zm10.53 1.8v3.16c0 .45.12.78.35.99.24.2.54.3.92.3.23 0 .5-.03.8-.1v1.86c-.39.15-.85.23-1.4.23-1 0-1.77-.28-2.3-.85a3.38 3.38 0 01-.78-2.38v-3.2h-1.54v-1.81h1.54v-1.9l2.41-.79v2.69h2.07v1.8h-2.07z" fill="#505050"/><path fill="#f5f6fa" d="M175 233h42v12h-42zM12 233h42v12H12z"/><g filter="url(#C)"><rect x="241" y="209" width="205" height="121" rx="8" fill="#fff"/></g><path d="M309.76 235.64h-3.57v-2.03h9.67v2.03h-3.57V245h-2.53v-9.36zm9.84 9.49c-.87 0-1.62-.17-2.27-.51a3.6 3.6 0 01-1.5-1.48 4.7 4.7 0 01-.5-2.24c0-.85.17-1.6.5-2.24a3.6 3.6 0 011.5-1.47c.65-.34 1.4-.51 2.27-.51.85 0 1.6.17 2.24.51a3.5 3.5 0 011.47 1.47c.35.64.53 1.4.53 2.24 0 .86-.18 1.6-.53 2.24a3.5 3.5 0 01-1.47 1.48 4.7 4.7 0 01-2.24.5zm0-1.84c.6 0 1.05-.2 1.36-.6.32-.39.48-.99.48-1.79 0-.78-.16-1.38-.48-1.77-.31-.4-.76-.61-1.36-.61-.61 0-1.07.2-1.4.6-.31.4-.47 1-.47 1.78 0 1.6.62 2.39 1.87 2.39zm8.74-4.6v3.16c0 .45.12.78.36.99.23.2.54.3.9.3.24 0 .5-.03.8-.1v1.86c-.38.15-.84.23-1.38.23-1 0-1.77-.28-2.3-.85a3.38 3.38 0 01-.8-2.38v-3.2h-1.53v-1.81h1.54v-1.9l2.41-.79v2.69h2.07v1.8h-2.07zm11.44-1.8V245h-2.39v-1.2c-.24.42-.59.74-1.04.98-.45.23-.95.35-1.52.35-.7 0-1.33-.17-1.87-.51a3.53 3.53 0 01-1.26-1.46 5.16 5.16 0 01-.45-2.2c0-.84.15-1.58.45-2.23.3-.65.73-1.15 1.28-1.5a3.27 3.27 0 011.85-.55c.57 0 1.07.12 1.52.37.45.24.8.57 1.04.99v-1.15h2.39zm-4.24 6.4c.6 0 1.05-.2 1.37-.61.32-.4.48-1 .48-1.76 0-.77-.16-1.35-.48-1.76a1.63 1.63 0 00-1.37-.62c-.6 0-1.06.2-1.4.64-.33.42-.5 1.01-.5 1.77s.17 1.34.49 1.75c.33.4.8.59 1.4.59zm6.19-10.07h2.41V245h-2.41v-11.78zm18.82 5.5v5.58c-.55.26-1.2.47-1.95.62-.74.15-1.5.22-2.27.22a6.6 6.6 0 01-3.14-.7 4.9 4.9 0 01-2.05-2.02 6.54 6.54 0 01-.7-3.13c0-1.19.24-2.22.7-3.09a4.96 4.96 0 012.02-2.02c.88-.48 1.9-.72 3.06-.72.82 0 1.58.12 2.28.34.72.22 1.3.54 1.76.94l-.8 1.8a5.03 5.03 0 00-3.18-1.09c-2.2 0-3.3 1.28-3.3 3.84 0 2.61 1.15 3.92 3.44 3.92.63 0 1.26-.08 1.9-.24v-2.51h-2.25v-1.75h4.48zm6.13 6.42c-.86 0-1.7-.1-2.5-.33a5.76 5.76 0 01-1.96-.98l.8-1.79a6.27 6.27 0 003.68 1.15c.72 0 1.28-.11 1.66-.33.4-.24.6-.56.6-.98 0-.36-.19-.64-.55-.85a6.65 6.65 0 00-1.87-.6c-1-.2-1.8-.45-2.4-.74a3.31 3.31 0 01-1.3-1.07c-.26-.43-.4-.96-.4-1.59 0-.68.19-1.3.56-1.84.39-.54.92-.96 1.6-1.26.69-.31 1.47-.47 2.37-.47.81 0 1.59.12 2.34.36.74.23 1.34.55 1.79.96l-.8 1.79c-1-.77-2.1-1.15-3.31-1.15-.64 0-1.16.12-1.54.38-.38.26-.57.6-.57 1.04 0 .26.06.47.2.64.15.17.4.33.74.46.34.13.82.26 1.45.39 1.47.32 2.52.73 3.16 1.25.65.5.97 1.2.97 2.1 0 1.06-.41 1.9-1.25 2.54-.83.62-1.98.92-3.47.92zm8.92-9.5h-3.56v-2.03h9.66v2.03h-3.57V245h-2.53v-9.36z" fill="#505050"/><path fill="#f5f6fa" d="M398 233h48v12h-48zm-157 0h48v12h-48z"/><defs><filter id="A" x="32" y="0" width="394" height="414" filterUnits="userSpaceOnUse" class="B"><feFlood result="A" class="C"/><feColorMatrix in="SourceAlpha" values="0 0 0 0 0 0 0 0 0 0 0 0 0 0 0 0 0 0 127 0"/><feOffset dy="4"/><feGaussianBlur stdDeviation="6"/><feColorMatrix values="0 0 0 0 0 0 0 0 0 0 0 0 0 0 0 0 0 0 0.06 0"/><feBlend in2="A"/><feBlend in="SourceGraphic"/></filter><filter id="B" x="0" y="197" width="229" height="145" filterUnits="userSpaceOnUse" class="B"><feFlood result="A" class="C"/><feColorMatrix in="SourceAlpha" values="0 0 0 0 0 0 0 0 0 0 0 0 0 0 0 0 0 0 127 0"/><feOffset/><feGaussianBlur stdDeviation="6"/><feColorMatrix values="0 0 0 0 0 0 0 0 0 0 0 0 0 0 0 0 0 0 0.06 0"/><feBlend in2="A"/><feBlend in="SourceGraphic"/></filter><filter id="C" x="229" y="197" width="229" height="145" filterUnits="userSpaceOnUse" class="B"><feFlood result="A" class="C"/><feColorMatrix in="SourceAlpha" values="0 0 0 0 0 0 0 0 0 0 0 0 0 0 0 0 0 0 127 0"/><feOffset/><feGaussianBlur stdDeviation="6"/><feColorMatrix values="0 0 0 0 0 0 0 0 0 0 0 0 0 0 0 0 0 0 0.06 0"/><feBlend in2="A"/><feBlend in="SourceGraphic"/></filter><linearGradient id="D" x1="44" y1="6" x2="410" y2="70.5" gradientUnits="userSpaceOnUse"><stop stop-color="#fff"/><stop offset="1" stop-color="#fff" stop-opacity=".4"/></linearGradient></defs></svg>